<?xml version="1.0" standalone="no"?><!DOCTYPE svg PUBLIC "-//W3C//DTD SVG 1.1//EN" "http://www.w3.org/Graphics/SVG/1.1/DTD/svg11.dtd"><svg t="1626763805731" class="icon" viewBox="0 0 1024 1024" version="1.1" xmlns="http://www.w3.org/2000/svg" p-id="7399" xmlns:xlink="http://www.w3.org/1999/xlink" width="32" height="32"><path d="M853.333333 554.666667 554.666667 554.666667l0 298.666667c0 23.466667-19.2 42.666667-42.666667 42.666667s-42.666667-19.2-42.666667-42.666667L469.333333 554.666667 170.666667 554.666667c-23.466667 0-42.666667-19.2-42.666667-42.666667 0-23.466667 19.2-42.666667 42.666667-42.666667l298.666667 0L469.333333 170.666667c0-23.466667 19.2-42.666667 42.666667-42.666667s42.666667 19.2 42.666667 42.666667l0 298.666667 298.666667 0c23.466667 0 42.666667 19.2 42.666667 42.666667C896 535.466667 876.8 554.666667 853.333333 554.666667z" p-id="7400"></path></svg>
