<?xml version="1.0" standalone="no"?><!DOCTYPE svg PUBLIC "-//W3C//DTD SVG 1.1//EN" "http://www.w3.org/Graphics/SVG/1.1/DTD/svg11.dtd"><svg t="1626763743191" class="icon" viewBox="0 0 1024 1024" version="1.1" xmlns="http://www.w3.org/2000/svg" p-id="6593" xmlns:xlink="http://www.w3.org/1999/xlink" width="32" height="32"><path d="M512 853.333333C323.413333 853.333333 170.666667 700.586667 170.666667 512 170.666667 323.413333 323.413333 170.666667 512 170.666667 700.586667 170.666667 853.333333 323.413333 853.333333 512 853.333333 700.586667 700.586667 853.333333 512 853.333333M512 85.333333C276.48 85.333333 85.333333 276.48 85.333333 512 85.333333 747.52 276.48 938.666667 512 938.666667 747.52 938.666667 938.666667 747.52 938.666667 512 938.666667 276.48 747.52 85.333333 512 85.333333M512 298.666667C394.24 298.666667 298.666667 394.24 298.666667 512 298.666667 629.76 394.24 725.333333 512 725.333333 629.76 725.333333 725.333333 629.76 725.333333 512 725.333333 394.24 629.76 298.666667 512 298.666667Z" p-id="6594" fill="#2c2c2c"></path></svg>
